<?xml version="1.0" standalone="no"?>
<!DOCTYPE svg PUBLIC "-//W3C//DTD SVG 20010904//EN"
 "http://www.w3.org/TR/2001/REC-SVG-20010904/DTD/svg10.dtd">
<svg version="1.0" xmlns="http://www.w3.org/2000/svg"
 width="1024.000000pt" height="1024.000000pt" viewBox="0 0 1024.000000 1024.000000"
 preserveAspectRatio="xMidYMid meet">
<metadata>
Created by potrace 1.14, written by Peter Selinger 2001-2017
</metadata>
<g transform="translate(0.000000,1024.000000) scale(0.100000,-0.100000)"
fill="#000000" stroke="none">
<path d="M5058 10228 c-10 -6 -10 -8 0 -8 6 0 12 -5 12 -11 0 -5 -4 -8 -9 -4
-5 3 -12 1 -15 -4 -4 -5 -17 -8 -31 -6 -17 1 -31 -5 -41 -19 -8 -11 -18 -20
-22 -19 -4 0 -6 -3 -4 -8 1 -6 -6 -5 -18 1 -17 9 -19 8 -13 -7 3 -10 3 -15 -2
-11 -4 4 -14 0 -22 -10 -9 -10 -12 -11 -7 -2 6 11 2 11 -12 -2 -15 -13 -23
-15 -31 -7 -8 8 -13 7 -18 -2 -6 -8 -4 -10 6 -4 11 7 12 6 2 -7 -7 -8 -9 -19
-5 -24 4 -4 0 -3 -9 4 -11 8 -18 9 -27 0 -8 -8 -15 -8 -25 1 -11 9 -17 8 -27
-4 -7 -8 -17 -12 -24 -8 -6 4 -6 0 2 -9 10 -13 10 -17 -3 -22 -10 -4 -14 -2
-9 5 4 7 1 10 -7 7 -8 -3 -13 -12 -11 -19 1 -10 -2 -9 -11 3 -12 15 -14 15
-25 0 -8 -11 -10 -11 -5 -2 6 13 4 13 -10 1 -9 -7 -15 -17 -12 -21 3 -5 1 -11
-5 -15 -5 -3 -10 -2 -10 4 0 5 -8 8 -17 6 -10 -1 -17 -8 -15 -14 1 -6 -4 -11
-12 -11 -8 0 -22 -7 -31 -16 -12 -13 -18 -14 -31 -4 -12 11 -13 10 -8 -4 4
-12 2 -15 -9 -11 -9 4 -16 -2 -20 -16 -5 -20 -8 -21 -23 -8 -16 12 -17 12 -11
-5 7 -18 7 -18 -20 -1 -26 17 -27 17 -14 1 13 -16 13 -17 -5 -14 -13 2 -19 -2
-18 -15 2 -13 -1 -15 -11 -7 -10 8 -14 7 -18 -2 -4 -10 -8 -10 -16 2 -8 12
-12 12 -29 -3 -10 -9 -22 -14 -27 -10 -4 5 -5 2 -1 -4 4 -7 2 -13 -4 -13 -6 0
-9 -4 -6 -8 7 -11 -25 -9 -44 3 -8 5 -6 -2 5 -15 l20 -23 -21 11 c-18 9 -24 8
-35 -6 -13 -15 -12 -16 4 -3 11 9 17 10 17 2 0 -6 -3 -11 -7 -12 -5 0 -19 -2
-33 -3 -14 -2 -29 2 -33 8 -6 7 -7 4 -3 -6 3 -10 1 -18 -5 -18 -6 0 -7 -5 -3
-11 4 -8 0 -8 -15 0 -18 10 -20 9 -14 -5 4 -11 2 -15 -4 -11 -6 4 -16 0 -23
-8 -10 -12 -16 -13 -29 -3 -9 7 -13 8 -9 4 10 -11 -23 -36 -36 -28 -6 3 -20 6
-32 7 -18 0 -20 -2 -12 -12 8 -11 14 -11 27 -1 13 10 14 10 4 -2 -16 -18 -43
-22 -44 -7 0 7 -5 1 -10 -13 -8 -20 -12 -22 -19 -10 -7 10 -10 11 -10 3 0 -7
-5 -13 -11 -13 -5 0 -7 5 -3 12 4 7 3 8 -5 4 -6 -4 -9 -10 -7 -14 2 -4 -3 -16
-11 -27 -12 -16 -14 -16 -10 -3 3 10 1 20 -5 24 -6 4 -8 3 -5 -3 4 -6 -1 -17
-10 -24 -9 -8 -14 -9 -11 -4 4 6 -2 11 -12 11 -15 0 -17 -3 -7 -15 10 -12 8
-13 -12 -6 -16 5 -21 4 -17 -4 4 -6 2 -11 -4 -11 -6 0 -8 -5 -4 -12 5 -7 3 -8
-7 -2 -24 15 -42 14 -29 -1 9 -11 7 -12 -11 -8 -17 5 -20 3 -14 -7 6 -10 4
-12 -8 -7 -12 4 -17 1 -17 -11 0 -10 -3 -13 -8 -7 -4 6 -13 11 -21 13 -12 3
-12 1 0 -14 9 -11 9 -15 2 -10 -7 4 -23 9 -35 11 -22 4 -22 4 -4 -10 24 -18
13 -20 -17 -3 -20 10 -21 10 -8 -6 8 -9 10 -16 5 -15 -5 1 -11 0 -14 -1 -19
-7 -39 -7 -34 1 3 5 10 6 16 3 7 -5 8 -2 3 6 -6 10 -13 7 -29 -13 -12 -15 -29
-27 -39 -27 -9 0 -17 -6 -17 -12 0 -9 -4 -8 -10 2 -5 8 -10 10 -10 4 0 -5 -7
-19 -16 -30 -14 -18 -14 -18 -3 6 11 22 10 23 -3 13 -8 -7 -19 -9 -23 -5 -5 4
-5 -1 -2 -11 4 -11 3 -16 -3 -12 -6 3 -10 1 -10 -6 0 -8 -4 -8 -15 1 -12 10
-15 10 -15 -4 0 -9 -5 -16 -11 -16 -5 0 -7 5 -3 12 4 6 3 8 -4 4 -6 -3 -9 -15
-7 -26 3 -14 0 -18 -8 -13 -17 11 -38 13 -32 3 7 -11 -24 -22 -38 -13 -7 4 -8
0 -4 -11 5 -12 3 -15 -6 -9 -17 11 -38 13 -32 3 3 -5 1 -11 -5 -15 -5 -3 -10
-1 -10 6 0 8 -3 9 -13 0 -8 -6 -17 -7 -22 -3 -4 4 -4 -4 -1 -18 5 -17 4 -21
-2 -11 -8 11 -12 10 -22 -5 -10 -16 -11 -16 -6 -2 4 15 2 16 -14 6 -10 -7 -16
-17 -13 -23 4 -5 -4 -1 -18 10 -13 11 -21 16 -17 11 4 -5 0 -15 -10 -23 -15
-12 -14 -13 8 -2 l25 12 -20 -20 c-15 -16 -23 -18 -34 -9 -11 8 -13 8 -7 -1 4
-7 3 -13 -3 -13 -5 0 -12 6 -14 13 -3 7 -6 5 -6 -5 -1 -10 -6 -18 -12 -18 -5
0 -7 5 -3 12 4 7 3 8 -4 4 -6 -4 -8 -14 -5 -24 6 -14 4 -15 -9 -4 -12 10 -18
9 -28 -3 -7 -8 -16 -12 -21 -9 -5 3 -9 -3 -9 -13 0 -15 -2 -16 -11 -3 -9 12
-10 10 -6 -8 4 -18 2 -21 -7 -13 -9 7 -16 7 -24 -1 -9 -9 -12 -9 -12 1 0 7 -5
9 -10 6 -6 -4 -8 -10 -6 -14 3 -4 -1 -8 -8 -8 -8 0 -13 5 -12 11 2 6 1 8 -1 4
-2 -4 -12 -4 -21 0 -15 5 -15 4 1 -12 9 -9 17 -20 17 -23 0 -4 -3 -3 -6 0 -4
3 -16 2 -27 -4 -15 -9 -18 -8 -11 3 6 10 5 11 -8 1 -8 -7 -19 -9 -23 -5 -5 4
-5 -1 -2 -10 3 -10 3 -17 -1 -17 -26 4 -42 -2 -36 -13 5 -9 2 -9 -9 1 -13 10
-17 10 -17 1 0 -10 -3 -10 -15 0 -13 11 -14 10 -10 -2 3 -8 -4 -23 -16 -34
-23 -21 -28 -21 -39 -4 -10 16 -43 -17 -33 -33 3 -7 3 -9 -2 -5 -4 4 -14 3
-21 -3 -8 -7 -14 -7 -19 1 -5 8 -11 6 -19 -6 -10 -13 -15 -14 -21 -4 -6 9 -4
11 5 5 9 -5 11 -4 6 3 -8 13 -46 -5 -46 -22 0 -4 8 -2 18 5 15 13 16 12 3 -3
-7 -10 -17 -16 -21 -13 -5 3 -10 2 -13 -2 -2 -5 -2 -2 0 6 3 11 0 11 -10 3 -8
-7 -18 -8 -22 -4 -5 4 -4 1 0 -7 6 -11 4 -13 -10 -7 -15 5 -16 4 -5 -9 11 -13
11 -16 -1 -13 -8 2 -17 8 -21 13 -4 6 -8 0 -8 -12 0 -15 -5 -21 -14 -17 -8 3
-17 0 -21 -6 -5 -8 -11 -7 -23 2 -13 11 -15 11 -10 -3 3 -9 2 -22 -4 -30 -8
-11 -8 -9 -4 5 7 20 7 20 -15 0 -12 -10 -20 -14 -16 -8 3 6 0 11 -8 11 -8 0
-13 -5 -12 -10 1 -5 -4 -12 -12 -15 -9 -3 -11 0 -6 9 5 8 -3 4 -17 -9 -13 -12
-28 -19 -33 -15 -4 5 -5 0 -2 -9 4 -12 2 -15 -9 -11 -7 3 -14 10 -14 17 0 6
-5 3 -11 -7 -6 -9 -15 -14 -21 -11 -7 4 -8 2 -4 -4 4 -7 2 -12 -4 -12 -6 0 -8
-5 -4 -12 6 -9 3 -9 -9 0 -18 15 -41 7 -30 -11 4 -7 -1 -6 -10 2 -16 12 -17
12 -10 -5 6 -17 5 -17 -10 -5 -15 12 -17 12 -12 -2 7 -17 -10 -32 -20 -17 -4
6 -11 8 -16 4 -5 -3 -7 -10 -4 -15 3 -5 -1 -6 -9 -3 -9 3 -13 11 -9 17 3 6 1
7 -6 3 -6 -4 -9 -12 -6 -17 6 -8 -8 -13 -27 -10 -4 0 -5 -6 -1 -15 6 -16 -17
-16 -29 1 -4 6 -8 -1 -8 -15 -1 -25 -1 -25 -16 -5 -16 20 -16 20 -10 -2 4 -12
2 -24 -5 -29 -8 -4 -9 -3 -5 4 11 18 -5 14 -26 -5 -18 -16 -19 -16 -12 3 5 15
2 14 -16 -6 -12 -14 -19 -20 -16 -13 4 6 1 15 -5 19 -8 4 -9 3 -5 -4 4 -8 0
-12 -10 -12 -16 0 -16 -1 2 -15 16 -13 16 -14 1 -9 -9 3 -24 1 -31 -5 -9 -7
-17 -8 -20 -2 -7 11 -32 9 -43 -4 -4 -4 -2 -5 6 0 9 5 12 3 9 -6 -3 -8 -12
-13 -21 -11 -12 2 -15 -2 -10 -15 5 -15 3 -15 -10 2 -9 11 -17 15 -17 8 0 -7
-9 -13 -21 -13 -15 0 -19 -4 -15 -16 6 -15 4 -15 -11 -3 -11 9 -14 10 -9 2 4
-8 2 -13 -4 -13 -6 0 -9 -4 -6 -8 2 -4 -5 -9 -17 -9 -15 -2 -18 0 -8 6 9 6 10
11 2 15 -10 7 -12 2 -15 -31 -1 -7 -6 -13 -11 -12 -6 0 -9 8 -7 17 1 10 -3 8
-11 -7 -11 -18 -16 -20 -20 -10 -4 11 -6 11 -6 1 -1 -7 -6 -10 -11 -7 -9 6
-14 -8 -11 -28 1 -5 -3 -6 -9 -2 -6 3 -8 10 -6 14 3 4 -1 8 -8 8 -8 0 -12 -8
-9 -21 4 -17 3 -18 -6 -6 -10 13 -11 13 -11 0 0 -13 -1 -13 -10 0 -9 14 -14 7
-11 -13 1 -4 -8 -3 -19 3 -16 9 -19 8 -13 -6 5 -13 3 -15 -7 -9 -10 6 -12 4
-6 -11 6 -15 5 -17 -5 -6 -16 15 -33 16 -23 1 4 -7 -1 -7 -16 1 -15 8 -20 8
-16 1 4 -6 2 -11 -4 -11 -7 0 -9 -7 -6 -16 5 -14 4 -15 -9 -4 -10 8 -15 9 -15
2 0 -7 -7 -9 -17 -5 -12 5 -14 3 -8 -8 7 -11 6 -12 -6 -2 -11 9 -19 7 -37 -7
-12 -10 -22 -22 -22 -26 0 -4 9 1 20 11 11 10 20 13 20 8 0 -10 -21 -23 -47
-29 -7 -1 -13 2 -13 7 0 5 -5 9 -11 9 -6 0 -9 -6 -6 -13 3 -8 -3 -14 -15 -14
-11 -1 -27 -10 -35 -20 -8 -10 -12 -13 -9 -6 4 7 -4 6 -24 -3 -17 -9 -27 -20
-24 -26 4 -6 2 -8 -4 -4 -6 3 -14 2 -17 -4 -5 -8 -11 -8 -20 0 -10 8 -15 7
-19 -2 -5 -11 -7 -11 -12 0 -5 10 -10 9 -21 -5 -8 -10 -11 -12 -7 -4 5 10 3
12 -6 6 -10 -6 -9 -11 5 -22 22 -15 16 -17 -19 -3 -21 8 -24 7 -19 -8 6 -15 5
-15 -11 -3 -15 12 -17 12 -14 0 2 -9 -5 -14 -22 -13 -22 2 -22 0 -7 -11 28
-20 19 -27 -11 -8 -24 15 -25 16 -14 1 11 -13 11 -16 0 -14 -7 1 -19 6 -27 10
-11 7 -13 5 -7 -10 4 -10 4 -15 0 -12 -9 9 -46 -11 -40 -21 3 -4 -1 -8 -9 -8
-8 0 -11 5 -8 11 4 6 -1 5 -10 -3 -14 -11 -17 -11 -17 0 0 12 -2 12 -9 0 -5
-8 -7 -20 -4 -28 4 -9 0 -11 -13 -6 -13 5 -15 3 -9 -7 6 -9 4 -11 -6 -5 -7 5
-22 10 -31 10 -15 1 -15 -1 -5 -13 10 -13 9 -14 -11 -3 -17 9 -22 9 -20 0 2
-6 -3 -14 -11 -17 -9 -3 -11 0 -7 9 4 8 1 6 -7 -3 -8 -10 -17 -15 -20 -11 -4
3 -7 1 -7 -6 0 -8 -7 -11 -15 -7 -9 3 -18 -1 -21 -9 -4 -8 -11 -12 -17 -8 -5
3 -7 1 -3 -5 3 -6 2 -13 -4 -17 -5 -3 -10 0 -10 7 -1 10 -4 9 -13 -2 -7 -9
-22 -15 -35 -14 -17 1 -20 -2 -12 -11 8 -10 8 -15 -1 -21 -8 -4 -9 -3 -5 4 4
7 2 12 -3 12 -6 0 -11 -6 -11 -12 0 -9 -4 -8 -10 2 -8 13 -10 12 -10 -2 0 -10
-8 -18 -17 -18 -14 0 -15 -2 -4 -9 11 -7 11 -9 0 -14 -12 -5 -12 -6 0 -6 11
-1 11 -4 0 -18 -10 -11 -10 -14 -1 -9 6 4 12 2 12 -3 0 -6 -5 -11 -11 -11 -6
0 -3 -7 5 -16 21 -20 20 -25 -2 -17 -15 6 -15 5 -3 -10 11 -14 11 -17 0 -17
-12 0 -12 -2 0 -9 9 -6 10 -10 2 -16 -9 -5 -9 -10 0 -21 9 -11 8 -14 -2 -14
-12 0 -12 -2 0 -9 11 -7 11 -9 0 -14 -12 -5 -12 -6 0 -6 11 -1 11 -4 1 -16
-10 -12 -9 -15 6 -16 11 0 14 -3 6 -6 -6 -2 -10 -9 -6 -14 3 -5 -1 -9 -8 -9
-9 0 -9 -3 2 -10 13 -9 13 -11 0 -20 -8 -5 -10 -10 -5 -10 6 0 11 -9 12 -20 1
-13 -2 -18 -10 -13 -7 4 -6 0 2 -10 11 -14 11 -17 0 -17 -12 0 -12 -2 0 -9 11
-7 11 -9 0 -14 -10 -4 -10 -6 -1 -6 6 -1 12 -8 12 -17 0 -9 -5 -12 -12 -8 -9
5 -9 2 1 -9 11 -14 11 -17 0 -17 -12 0 -12 -2 0 -9 11 -7 11 -9 0 -14 -10 -4
-10 -6 -1 -6 6 -1 12 -8 12 -17 0 -9 -5 -12 -12 -8 -9 5 -9 2 1 -9 11 -14 11
-17 0 -17 -12 0 -12 -2 0 -9 11 -7 11 -9 0 -14 -10 -4 -10 -6 -1 -6 6 -1 12
-8 12 -17 0 -9 -5 -12 -12 -8 -9 5 -9 2 1 -9 11 -14 11 -17 0 -17 -12 0 -12
-2 0 -9 11 -7 11 -9 0 -14 -12 -5 -12 -6 0 -6 11 -1 11 -4 0 -18 -10 -11 -10
-14 -1 -9 6 4 12 3 12 -3 0 -5 -6 -12 -12 -14 -10 -4 -10 -6 0 -6 8 -1 10 -6
5 -13 -11 -19 -12 -37 -2 -44 5 -3 9 -10 9 -15 0 -6 -4 -8 -9 -5 -5 4 -8 -1
-7 -10 1 -8 9 -20 17 -25 11 -7 10 -9 -6 -10 -11 0 -14 -3 -7 -6 10 -4 10 -8
0 -21 -10 -12 -10 -14 -1 -8 17 9 17 -6 0 -23 -7 -9 -7 -11 -1 -8 7 4 15 0 18
-9 3 -8 2 -12 -3 -9 -5 3 -12 1 -16 -5 -3 -5 0 -10 7 -10 9 0 9 -3 -2 -10 -12
-8 -12 -10 -1 -10 9 0 10 -4 4 -12 -11 -15 -11 -28 0 -45 5 -8 3 -13 -5 -13
-9 0 -9 -3 2 -10 13 -9 13 -10 0 -10 -11 -1 -10 -4 4 -15 20 -15 20 -15 0 -16
-11 0 -14 -3 -6 -6 10 -4 10 -8 0 -21 -10 -12 -10 -14 -1 -8 7 4 13 3 13 -3 0
-5 -5 -13 -10 -16 -8 -5 -7 -11 1 -21 7 -9 8 -14 1 -14 -11 0 -11 -18 1 -37 5
-8 3 -13 -5 -13 -9 0 -9 -3 2 -10 13 -9 13 -11 0 -20 -12 -8 -12 -10 -1 -10
11 0 11 -3 0 -17 -12 -15 -12 -16 1 -8 13 8 13 7 1 -8 -12 -15 -11 -17 2 -17
10 0 14 -6 11 -15 -4 -8 -11 -12 -18 -8 -6 4 -5 -1 3 -10 11 -14 11 -17 0 -17
-12 0 -12 -2 0 -9 11 -7 11 -9 0 -14 -10 -4 -10 -6 -1 -6 6 -1 12 -8 12 -17 0
-9 -5 -12 -12 -8 -9 5 -9 2 1 -9 11 -14 11 -17 0 -17 -12 0 -12 -2 0 -9 11 -7
11 -9 0 -14 -10 -4 -10 -6 -1 -6 6 -1 12 -8 12 -17 0 -9 -5 -12 -12 -8 -9 5
-9 2 1 -9 11 -14 11 -17 0 -17 -12 0 -12 -2 0 -9 11 -7 11 -9 0 -14 -10 -4
-10 -6 -1 -6 6 -1 12 -8 12 -17 0 -9 -5 -12 -12 -8 -9 5 -9 2 1 -9 11 -14 11
-17 0 -17 -12 0 -12 -2 0 -9 11 -7 11 -9 0 -14 -11 -4 -11 -6 -1 -6 8 -1 10
-6 5 -13 -11 -19 -13 -39 -2 -32 13 8 11 -10 -3 -25 -10 -11 -10 -13 0 -7 6 4
12 2 12 -3 0 -6 -5 -11 -12 -11 -6 0 -3 -9 7 -20 14 -16 15 -19 4 -15 -10 4
-16 0 -16 -9 0 -8 4 -13 9 -10 4 3 8 1 8 -5 0 -5 -5 -13 -10 -16 -8 -5 -8 -11
0 -20 8 -10 7 -14 -2 -18 -10 -4 -10 -6 1 -6 11 -1 11 -4 1 -16 -10 -12 -9
-15 6 -15 15 0 16 -2 5 -9 -8 -5 -16 -17 -17 -25 -1 -9 2 -14 7 -10 11 6 12
-9 2 -20 -10 -10 -13 -37 -3 -31 4 3 11 -2 14 -11 3 -8 2 -12 -3 -9 -5 3 -12
1 -16 -5 -3 -5 0 -10 7 -10 9 0 9 -3 -2 -10 -12 -8 -12 -10 -1 -10 9 0 10 -4
5 -12 -11 -16 -11 -39 -1 -55 5 -8 3 -13 -5 -13 -9 0 -9 -3 2 -10 13 -9 13
-11 0 -20 -13 -9 -13 -10 0 -10 13 0 13 -1 0 -10 -12 -8 -12 -10 -1 -10 11 0
11 -3 1 -15 -10 -12 -9 -15 6 -16 11 0 14 -3 6 -6 -6 -2 -10 -9 -6 -14 3 -5
-1 -9 -8 -9 -9 0 -9 -3 2 -10 13 -9 13 -11 0 -20 -8 -5 -10 -10 -5 -10 6 0 11
-9 12 -20 1 -13 -2 -18 -10 -13 -7 4 -6 0 2 -10 11 -14 11 -17 0 -17 -12 0
-12 -2 0 -9 11 -7 11 -9 0 -14 -10 -4 -10 -6 -1 -6 6 -1 12 -8 12 -17 0 -9 -5
-12 -12 -8 -9 5 -9 2 1 -9 11 -14 11 -17 0 -17 -12 0 -12 -2 0 -9 11 -7 11 -9
0 -14 -10 -4 -10 -6 -1 -6 6 -1 12 -8 12 -17 0 -9 -5 -12 -12 -8 -9 5 -9 2 1
-9 11 -14 11 -17 0 -17 -12 0 -12 -2 0 -9 11 -7 11 -9 0 -14 -10 -4 -10 -6 -1
-6 6 -1 12 -8 12 -17 0 -9 -5 -12 -12 -8 -9 5 -9 2 1 -9 11 -14 11 -17 0 -17
-12 0 -12 -2 0 -9 11 -7 11 -9 0 -14 -12 -5 -12 -6 0 -6 11 -1 11 -4 0 -18
-10 -11 -10 -14 -2 -9 7 4 13 3 13 -3 0 -5 -6 -12 -12 -14 -10 -4 -10 -6 0 -6
8 -1 10 -6 5 -13 -11 -19 -12 -37 -2 -44 5 -3 9 -10 9 -15 0 -6 -4 -8 -9 -5
-5 4 -8 -1 -7 -10 1 -8 9 -20 17 -25 11 -7 10 -9 -6 -10 -11 0 -14 -3 -7 -6
10 -4 10 -8 0 -21 -10 -12 -10 -14 0 -8 16 9 16 -6 0 -23 -8 -9 -8 -11 -2 -8
7 4 15 0 18 -9 3 -8 2 -12 -3 -9 -5 3 -12 1 -16 -5 -3 -5 0 -10 7 -10 9 0 9
-3 -2 -10 -12 -8 -12 -10 -1 -10 9 0 10 -4 4 -12 -11 -15 -11 -28 0 -45 5 -8
3 -13 -5 -13 -9 0 -9 -3 2 -10 13 -9 13 -10 0 -10 -11 -1 -10 -4 4 -15 20 -15
20 -15 0 -16 -11 0 -14 -3 -6 -6 10 -4 10 -8 0 -21 -10 -12 -10 -14 0 -8 6 4
12 3 12 -3 0 -5 -5 -13 -10 -16 -8 -5 -7 -11 1 -21 7 -9 8 -14 1 -14 -11 0
-11 -18 1 -38 5 -7 3 -12 -5 -12 -9 0 -9 -3 2 -10 13 -9 13 -11 0 -20 -12 -8
-12 -10 -1 -10 11 0 11 -3 0 -17 -12 -15 -12 -16 1 -8 13 8 13 7 1 -8 -12 -15
-11 -17 2 -17 10 0 14 -6 11 -15 -4 -8 -11 -12 -18 -8 -6 4 -5 -1 3 -10 11
-14 11 -17 0 -17 -12 0 -12 -2 0 -9 11 -7 11 -9 0 -14 -10 -4 -10 -6 -1 -6 6
-1 12 -8 12 -17 0 -9 -5 -12 -12 -8 -9 5 -9 2 1 -9 11 -14 11 -17 0 -17 -12 0
-12 -2 0 -9 11 -7 11 -9 0 -14 -10 -4 -10 -6 -1 -6 6 -1 12 -8 12 -17 0 -9 -5
-12 -12 -8 -9 5 -9 2 1 -9 11 -14 11 -17 0 -17 -12 0 -12 -2 0 -9 11 -7 11 -9
0 -14 -10 -4 -10 -6 -1 -6 6 -1 12 -8 12 -17 0 -9 -5 -12 -13 -8 -8 5 -8 2 2
-9 11 -14 11 -17 0 -17 -12 0 -12 -2 0 -9 11 -7 11 -9 0 -14 -11 -4 -11 -6 -1
-6 8 -1 10 -6 5 -14 -11 -18 -13 -38 -2 -31 13 8 11 -10 -3 -25 -10 -11 -10
-13 0 -7 6 4 12 2 12 -3 0 -6 -5 -11 -12 -11 -6 0 -3 -9 7 -20 14 -16 15 -19
4 -15 -10 4 -16 0 -16 -9 0 -8 4 -13 9 -10 4 3 8 1 8 -5 0 -5 -5 -13 -10 -16
-8 -5 -8 -11 0 -20 8 -10 7 -14 -2 -18 -10 -4 -10 -6 1 -6 11 -1 11 -4 1 -16
-10 -12 -9 -15 6 -15 15 0 16 -2 5 -9 -8 -5 -16 -17 -17 -25 -1 -9 2 -14 7
-10 11 6 12 -9 2 -20 -10 -10 -13 -37 -3 -31 4 3 11 -2 14 -11 3 -8 2 -12 -3
-9 -5 3 -12 1 -16 -5 -3 -5 0 -10 7 -10 9 0 9 -3 -2 -10 -12 -8 -12 -10 -1
-10 9 0 10 -4 5 -12 -11 -16 -11 -39 -1 -55 5 -8 3 -13 -5 -13 -9 0 -9 -3 2
-10 13 -9 13 -11 0 -20 -13 -9 -13 -10 0 -10 13 0 13 -1 0 -10 -12 -8 -12 -10
-1 -10 11 0 11 -3 1 -15 -10 -12 -9 -15 6 -16 11 0 14 -3 6 -6 -6 -2 -10 -9
-6 -14 3 -5 -1 -9 -8 -9 -9 0 -9 -3 2 -10 13 -9 13 -11 0 -20 -8 -5 -10 -10
-5 -10 6 0 11 -9 12 -20 1 -13 -2 -18 -10 -13 -7 4 -6 0 2 -10 11 -14 11 -17
0 -17 -12 0 -12 -2 0 -9 11 -7 11 -9 0 -14 -10 -4 -10 -6 -1 -6 6 -1 12 -8 12
-17 0 -9 -5 -12 -12 -8 -9 5 -9 2 1 -9 11 -14 11 -17 0 -17 -12 0 -12 -2 0 -9
11 -7 11 -9 0 -14 -10 -4 -10 -6 -1 -6 6 -1 12 -8 12 -17 0 -9 -5 -12 -12 -8
-9 5 -9 2 1 -9 11 -14 11 -17 0 -17 -12 0 -12 -2 0 -9 11 -7 11 -9 0 -14 -10
-4 -10 -6 -1 -6 6 -1 12 -8 12 -17 0 -9 -5 -12 -12 -8 -9 5 -9 2 1 -9 11 -14
11 -17 0 -17 -12 0 -12 -2 0 -9 11 -7 11 -9 0 -14 -12 -5 -12 -6 0 -6 11 -1
11 -4 0 -18 -10 -11 -10 -14 -1 -9 6 4 12 3 12 -3 0 -5 -6 -12 -12 -14 -10 -4
-10 -6 0 -6 8 -1 10 -6 5 -13 -11 -19 -12 -37 -2 -44 5 -3 9 -10 9 -15 0 -6
-4 -8 -9 -5 -5 4 -8 -1 -7 -10 1 -8 9 -20 17 -25 11 -7 10 -9 -6 -10 -11 0
-14 -3 -7 -6 10 -4 10 -8 0 -21 -10 -12 -10 -14 -1 -8 17 9 17 -6 1 -23 -8 -9
-8 -11 -2 -8 7 4 15 0 18 -9 3 -8 2 -12 -3 -9 -5 3 -12 1 -16 -5 -3 -5 0 -10
7 -10 9 0 9 -3 -2 -10 -12 -8 -12 -10 -1 -10 10 0 11 -4 3 -12 -13 -16 -13
-30 0 -45 8 -9 7 -13 -3 -13 -11 0 -11 -2 1 -10 13 -9 13 -10 0 -10 -11 -1
-10 -4 4 -15 20 -15 20 -15 0 -16 -11 0 -14 -3 -6 -6 10 -4 10 -8 0 -21 -10
-12 -10 -14 -1 -8 7 4 13 3 13 -3 0 -5 -5 -13 -10 -16 -8 -5 -7 -11 1 -21 7
-9 8 -14 1 -14 -11 0 -11 -18 1 -38 5 -7 3 -12 -5 -12 -9 0 -9 -3 2 -10 13 -9
13 -11 0 -20 -12 -8 -12 -10 -1 -10 11 0 11 -3 0 -17 -12 -15 -12 -16 1 -8 13
8 13 7 1 -8 -12 -15 -11 -17 2 -17 10 0 14 -6 11 -15 -4 -8 -11 -12 -18 -8 -6
4 -5 -1 3 -10 11 -14 11 -17 0 -17 -12 0 -12 -2 0 -9 11 -7 11 -9 0 -14 -10
-4 -10 -6 -1 -6 6 -1 12 -8 12 -17 0 -9 -5 -12 -13 -8 -8 5 -8 2 2 -9 11 -14
11 -17 0 -17 -12 0 -12 -2 0 -9 11 -7 11 -9 0 -14 -10 -4 -10 -6 -1 -6 6 -1
12 -8 12 -17 0 -9 -5 -12 -12 -8 -9 5 -9 2 1 -9 11 -14 11 -17 0 -17 -12 0
-12 -2 0 -9 11 -7 11 -9 0 -14 -10 -4 -10 -6 -1 -6 6 -1 12 -8 12 -17 0 -9 -5
-12 -12 -8 -9 5 -9 2 1 -9 11 -14 11 -17 0 -17 -12 0 -12 -2 0 -9 11 -7 11 -9
0 -14 -11 -4 -11 -6 -1 -6 8 -1 10 -6 5 -14 -11 -18 -13 -38 -2 -31 13 8 11
-10 -3 -25 -10 -11 -10 -13 -1 -7 7 4 13 2 13 -3 0 -6 -5 -11 -12 -11 -6 0 -3
-9 7 -20 14 -16 15 -19 4 -15 -10 4 -16 0 -16 -9 0 -8 4 -13 9 -10 4 3 8 1 8
-5 0 -5 -5 -13 -10 -16 -8 -5 -8 -11 0 -20 8 -10 7 -14 -2 -18 -10 -4 -10 -6
1 -6 11 -1 11 -4 1 -16 -10 -12 -9 -15 6 -15 15 0 16 -2 5 -9 -8 -5 -16 -17
-17 -25 -1 -9 2 -14 7 -10 5 3 9 1 9 -5 0 -5 -5 -13 -10 -16 -8 -5 -8 -11 -1
-19 7 -9 7 -17 -2 -26 -10 -10 -9 -11 2 -5 11 6 13 4 7 -11 -4 -10 -4 -15 0
-11 4 4 16 0 26 -10 10 -9 18 -13 18 -8 0 4 -8 14 -17 22 -16 13 -15 13 7 0
14 -8 25 -20 25 -27 0 -7 8 -14 18 -16 14 -2 17 2 12 14 -5 13 -2 12 13 -3 11
-11 17 -24 14 -30 -3 -5 1 -5 8 2 15 14 40 6 40 -13 0 -8 3 -13 8 -13 21 4 32
-2 26 -14 -5 -7 0 -6 11 3 15 12 17 12 10 1 -6 -11 -4 -13 8 -8 9 3 19 1 23
-5 5 -7 2 -8 -7 -3 -8 5 -10 4 -6 0 10 -11 39 -16 32 -6 -2 4 3 8 11 8 8 0 13
-6 10 -13 -3 -7 2 -10 15 -7 11 3 19 0 19 -6 0 -7 -5 -9 -12 -5 -7 4 -8 3 -4
-4 4 -6 14 -8 23 -5 12 5 14 3 8 -8 -6 -11 -5 -11 5 -2 14 13 40 7 40 -9 0 -6
-8 -4 -18 3 -15 13 -16 12 -3 -4 11 -14 16 -15 29 -5 9 7 13 8 10 3 -4 -6 2
-17 14 -24 11 -7 17 -8 13 -2 -3 6 -1 11 4 11 6 0 11 -5 11 -11 0 -6 9 -8 23
-4 22 7 22 7 2 -10 -11 -9 -15 -14 -8 -11 17 9 44 -4 36 -18 -4 -8 -2 -8 7 1
13 12 18 10 62 -32 11 -11 18 -14 14 -7 -4 6 -2 12 3 12 6 0 11 -4 11 -10 0
-5 5 -10 11 -10 5 0 7 5 3 11 -3 6 5 3 20 -6 14 -10 26 -14 26 -9 0 4 7 -1 16
-12 8 -10 13 -14 10 -7 -4 6 -1 15 5 19 8 4 9 3 5 -4 -4 -7 -2 -12 4 -12 6 0
8 -4 5 -10 -4 -6 2 -7 18 -1 18 7 24 6 24 -4 0 -8 -5 -11 -10 -8 -6 3 -7 1 -3
-5 4 -7 16 -12 27 -12 10 0 19 -6 19 -12 0 -8 3 -9 8 -3 8 12 36 19 28 7 -2
-4 9 -14 25 -21 18 -8 26 -17 22 -24 -4 -7 -1 -7 9 1 14 11 17 10 23 -7 3 -12
10 -21 15 -21 5 0 7 8 4 18 -3 9 2 4 11 -11 14 -24 19 -27 33 -15 11 9 14 10
8 0 -7 -12 4 -16 33 -12 8 1 12 -4 8 -14 -4 -11 -1 -13 10 -9 11 4 14 2 9 -5
-5 -8 -2 -10 9 -6 14 6 14 8 -2 20 -10 7 -15 14 -11 14 4 0 21 -14 38 -30 17
-17 36 -30 43 -30 7 1 1 7 -13 15 -29 16 -19 20 11 4 17 -8 18 -13 8 -25 -10
-12 -10 -15 2 -12 8 2 17 8 21 13 5 6 8 5 8 -2 0 -7 5 -13 11 -13 5 0 7 6 3
13 -6 9 -5 9 8 0 8 -7 18 -10 22 -6 4 4 4 -1 0 -12 -6 -14 -4 -17 8 -12 10 3
19 -1 22 -10 6 -14 8 -14 20 2 13 18 14 17 11 -6 -2 -22 1 -26 20 -23 18 1 22
-2 18 -14 -5 -11 -3 -13 8 -6 24 14 42 14 29 -1 -8 -10 -4 -12 20 -9 16 2 30
-1 30 -7 0 -6 -4 -8 -8 -5 -4 2 -14 0 -22 -5 -11 -7 -8 -8 12 -5 15 3 29 -1
32 -7 3 -9 5 -8 5 1 1 10 5 10 21 0 17 -11 22 -10 30 2 5 8 10 10 10 4 0 -5
-6 -16 -12 -23 -11 -10 -10 -12 2 -9 8 2 14 -3 12 -10 -1 -8 2 -11 8 -7 6 3 7
12 3 18 -5 9 -3 9 8 0 8 -6 18 -11 22 -11 5 0 12 -4 15 -8 4 -4 0 -3 -8 1 -12
7 -13 6 -3 -6 6 -8 24 -16 40 -17 15 -1 31 -9 35 -17 7 -11 15 -12 35 -4 23 8
24 8 13 -6 -9 -11 -9 -15 -1 -15 7 0 10 -4 7 -8 -3 -5 1 -9 9 -9 8 0 12 4 9 9
-3 4 0 8 6 8 6 0 13 -6 16 -14 3 -8 13 -17 21 -20 13 -5 14 -4 3 9 -11 13 -10
14 4 9 9 -3 16 -12 16 -20 0 -8 6 -11 17 -7 12 5 14 3 8 -8 -7 -12 -6 -12 7
-1 13 10 18 10 24 1 4 -8 3 -9 -4 -5 -8 5 -10 1 -5 -9 5 -14 8 -14 15 -3 7 10
11 10 15 1 2 -7 9 -13 14 -13 6 0 7 6 3 13 -5 8 -2 8 9 -2 18 -14 23 -26 8
-16 -5 3 -12 1 -15 -4 -7 -11 13 -9 32 2 7 5 12 4 12 -2 0 -6 9 -11 20 -11 11
0 20 -5 20 -11 0 -5 -6 -7 -13 -3 -9 5 -9 4 0 -6 15 -16 46 -23 37 -9 -3 5 0
9 5 9 6 0 11 -5 11 -11 0 -5 5 -7 12 -3 8 5 9 2 4 -11 -5 -15 -4 -16 8 -6 12
10 16 8 21 -10 6 -17 9 -19 16 -8 7 12 9 12 9 0 0 -10 3 -11 13 -2 14 11 37
-3 37 -23 0 -5 -7 -1 -16 10 -15 18 -15 18 -4 -3 5 -12 15 -25 22 -29 7 -4 8
-3 4 4 -11 18 23 14 42 -4 15 -15 16 -15 23 2 8 20 7 22 13 -28 0 -6 9 -12 19
-14 9 -1 15 2 11 7 -3 5 -10 6 -16 3 -6 -4 -8 -2 -5 4 4 5 16 8 27 5 11 -3 17
-10 13 -17 -4 -6 2 -4 12 4 11 9 16 10 11 3 -4 -8 -2 -13 4 -13 6 0 8 -5 4
-12 -5 -9 -2 -8 9 1 10 8 20 11 24 7 3 -3 1 -6 -6 -6 -9 0 -9 -4 1 -14 9 -10
15 -11 20 -2 6 8 8 8 8 0 0 -7 7 -14 15 -18 8 -3 14 -1 12 3 -1 5 3 9 8 8 6 0
9 -10 7 -21 -2 -17 -1 -18 7 -6 9 13 11 12 12 -5 l0 -20 9 20 9 20 0 -20 c1
-17 3 -17 11 -5 8 13 10 12 10 -4 0 -16 3 -17 12 -8 7 7 17 12 23 12 5 0 4 -4
-4 -9 -17 -11 -5 -32 14 -24 8 3 15 0 15 -6 0 -6 5 -11 11 -11 5 0 8 4 5 8 -3
5 1 9 9 9 8 0 12 -3 10 -7 -5 -7 5 -21 27 -38 12 -10 18 -10 24 -1 5 8 3 9 -6
4 -9 -6 -11 -4 -5 5 6 10 11 9 22 -6 8 -10 21 -18 29 -16 8 2 14 -1 14 -6 0
-5 7 -9 15 -10 8 -1 22 -3 30 -4 8 -1 15 -8 16 -17 0 -11 2 -12 6 -3 2 6 9 10
14 6 5 -3 9 0 9 7 0 7 3 10 6 7 3 -4 1 -15 -5 -26 -9 -17 -8 -19 9 -15 13 3
20 0 20 -8 0 -11 2 -11 10 1 7 12 10 12 10 1 0 -7 6 -11 15 -8 8 4 17 2 20 -4
4 -5 11 -6 17 -3 7 4 8 2 4 -5 -6 -8 -12 -9 -20 -2 -9 8 -13 7 -13 -4 0 -8 3
-13 5 -10 3 3 12 -1 20 -8 13 -9 14 -9 8 0 -10 18 9 16 24 -2 9 -11 17 -12 30
-5 21 11 38 -4 19 -16 -8 -5 -9 -3 -4 6 5 9 4 11 -4 6 -9 -6 -9 -11 0 -22 9
-12 15 -12 27 -2 10 8 13 8 9 2 -6 -10 4 -16 41 -24 4 -1 14 -8 23 -16 12 -10
18 -11 27 -2 9 9 12 9 12 -3 0 -12 2 -12 10 1 6 9 10 11 10 3 0 -7 7 -10 18
-6 14 5 13 3 -3 -10 -20 -16 -20 -16 3 -12 19 3 23 1 17 -13 -5 -13 -3 -14 6
-5 12 12 16 10 61 -31 21 -19 21 -19 14 -1 -7 18 -6 18 15 -1 12 -10 20 -14
16 -9 -3 6 3 11 13 11 15 0 17 -3 7 -15 -10 -12 -9 -13 11 -2 22 12 23 11 12
-8 -10 -19 -9 -20 14 -11 21 8 24 6 21 -11 -5 -24 4 -24 22 -2 10 14 13 14 11
3 -2 -8 3 -14 10 -12 6 1 12 -6 13 -15 0 -15 2 -15 9 2 8 18 9 18 9 -5 1 -20
3 -22 11 -10 7 12 12 12 22 2 6 -6 21 -12 33 -12 16 0 17 -2 5 -10 -12 -8 -11
-10 8 -10 12 0 22 -6 22 -12 0 -9 4 -8 10 2 6 10 10 11 10 3 0 -7 5 -13 11
-13 5 0 7 6 3 13 -4 6 2 4 13 -6 11 -9 23 -14 27 -10 4 5 7 3 6 -2 -1 -6 -2
-17 -1 -24 1 -12 4 -12 13 -3 17 17 28 15 28 -4 0 -9 9 -18 20 -21 11 -3 18
-9 15 -12 -2 -4 2 -8 10 -8 8 0 15 4 15 9 0 5 5 6 10 3 6 -4 8 -11 5 -16 -4
-5 -1 -9 5 -9 6 0 8 -4 5 -10 -4 -6 3 -6 21 0 15 6 29 8 32 5 3 -3 0 -5 -6 -5
-7 0 -12 -4 -12 -8 0 -4 9 -8 20 -8 11 0 20 3 20 6 0 4 7 7 15 7 8 0 12 -4 9
-9 -9 -14 16 -37 33 -31 12 5 14 3 8 -8 -7 -12 -6 -12 7 -1 13 10 18 10 24 1
4 -8 3 -9 -4 -5 -8 5 -10 1 -5 -9 4 -12 8 -13 13 -4 6 9 14 6 31 -9 18 -18 25
-19 38 -9 12 10 14 9 7 -7 -7 -19 -6 -19 13 -2 19 17 19 17 14 -5 -5 -18 -3
-21 10 -16 10 4 20 0 26 -11 9 -15 13 -15 31 -4 12 8 20 10 17 5 -3 -5 5 -22
19 -39 13 -16 23 -23 22 -15 -2 7 5 15 15 16 15 3 16 1 5 -13 -11 -13 -11 -14
0 -8 9 5 22 0 37 -14 17 -16 25 -18 30 -9 6 8 4 10 -5 4 -9 -6 -11 -4 -5 5 5
9 14 4 31 -16 13 -16 23 -25 24 -20 0 5 8 2 18 -5 15 -13 16 -12 3 3 -7 10
-18 15 -24 11 -6 -4 -7 -1 -2 7 6 9 4 11 -5 5 -9 -6 -11 -4 -5 5 6 10 15 5 37
-19 15 -17 28 -26 28 -19 0 10 2 10 9 -1 7 -11 9 -11 14 0 4 11 6 11 6 1 1 -8
6 -10 14 -6 7 5 6 0 -3 -11 -9 -11 -10 -16 -2 -11 7 4 12 2 12 -5 0 -7 3 -9 7
-6 3 4 16 -1 27 -10 15 -13 17 -14 8 -2 -9 13 -9 16 3 16 14 0 19 -10 16 -29
-1 -8 14 -12 38 -9 7 2 10 -2 6 -8 -3 -6 -1 -11 4 -11 6 0 11 6 11 12 0 7 7 2
16 -10 8 -12 21 -22 29 -22 7 0 16 -6 18 -12 4 -10 6 -10 6 -1 1 6 -3 15 -9
18 -5 3 -10 11 -10 16 0 6 12 -3 26 -18 14 -15 23 -23 20 -17 -3 6 1 11 9 11
8 0 15 -4 15 -9 0 -5 5 -6 12 -2 7 4 8 3 4 -5 -4 -6 -13 -9 -19 -5 -7 3 -4 -1
6 -10 11 -8 26 -12 35 -9 9 4 13 2 9 -4 -3 -5 0 -10 8 -10 8 0 12 5 9 11 -3 6
0 4 8 -5 7 -9 19 -14 27 -11 8 2 11 0 8 -5 -3 -5 -2 -15 4 -23 7 -12 9 -11 9
5 0 18 2 18 21 -5 15 -17 19 -19 15 -7 -3 11 -2 16 4 12 6 -3 10 -13 10 -21 0
-12 19 -19 43 -15 4 0 7 -4 7 -10 0 -6 5 -7 13 -2 18 11 38 13 31 2 -3 -5 0
-9 7 -9 7 0 9 -3 6 -6 -4 -4 -15 -1 -24 7 -15 12 -15 10 1 -9 16 -18 22 -20
34 -9 13 10 14 9 8 -1 -6 -10 6 -13 58 -11 36 1 63 6 60 10 -2 5 -10 7 -17 5
-7 -1 -9 -1 -4 1 4 3 4 9 1 15 -4 6 3 5 15 -1 17 -9 21 -9 19 1 -2 8 5 12 16
10 12 -2 16 1 11 10 -3 7 1 4 11 -7 14 -16 16 -17 11 -3 -5 13 0 19 18 24 15
4 22 11 18 18 -4 6 2 4 12 -4 10 -8 16 -10 12 -4 -4 7 2 14 14 17 12 3 18 10
14 16 -4 7 0 8 10 4 10 -3 21 0 26 8 8 12 11 12 19 -1 8 -13 10 -13 10 2 0 9
5 20 12 24 7 4 8 3 4 -4 -4 -7 -3 -12 2 -12 5 0 13 10 17 23 4 13 8 17 12 9 3
-8 11 -5 24 10 10 13 18 17 19 11 0 -7 -4 -13 -10 -13 -5 0 -10 -4 -10 -9 0
-5 14 -3 30 5 17 9 30 18 30 20 0 3 -5 2 -12 -2 -7 -4 -8 -3 -4 4 4 6 13 9 21
5 8 -3 15 0 15 6 0 6 5 11 11 11 5 0 7 -5 3 -11 -5 -8 -1 -8 13 0 11 6 23 8
26 4 4 -3 4 4 2 17 -3 17 -2 20 10 10 10 -8 17 -6 29 12 9 12 16 18 16 13 0
-6 7 -1 15 9 15 20 60 28 86 15 10 -5 16 -3 16 6 0 7 -6 11 -13 8 -6 -2 -15 1
-19 7 -3 6 -3 10 2 9 21 -4 44 2 39 9 -3 5 1 9 9 9 8 0 12 -3 10 -7 -2 -4 3
-7 11 -7 8 0 13 6 10 13 -3 8 2 11 13 9 14 -3 17 2 15 21 -2 21 0 23 12 13 16
-13 19 -23 4 -14 -5 3 -7 0 -4 -8 4 -12 11 -10 31 9 18 17 30 21 38 14 9 -7
23 -1 50 20 36 28 49 34 68 31 5 -1 5 4 1 10 -5 8 -1 10 13 7 15 -4 27 2 41
21 19 26 62 40 62 20 0 -6 5 -7 10 -4 6 4 8 9 6 13 -2 4 3 16 11 27 12 16 14
16 10 3 -3 -10 -1 -20 5 -24 6 -4 8 -3 5 3 -4 6 1 17 10 24 13 11 17 11 20 2
3 -7 9 -13 15 -13 6 0 7 7 4 16 -3 8 -2 13 3 10 5 -3 14 0 20 8 6 7 22 12 36
10 16 -1 30 5 40 19 11 15 15 17 16 7 0 -8 5 -4 10 10 8 20 12 22 19 10 7 -10
10 -11 10 -2 0 6 10 12 23 12 25 0 49 13 47 26 -1 5 4 10 11 13 7 2 9 -1 4 -8
-5 -9 -2 -9 13 0 12 7 18 17 15 22 -4 6 5 8 21 5 14 -3 29 -1 33 5 3 6 1 7 -5
3 -7 -4 -12 -3 -12 2 0 5 9 12 20 15 11 3 18 2 16 -2 -3 -4 8 -7 24 -6 15 0
26 4 23 8 -3 5 -12 6 -20 3 -8 -3 -11 -1 -8 5 4 5 14 9 23 7 10 -2 23 3 30 12
8 8 11 10 8 3 -3 -6 0 -10 7 -9 18 2 58 32 52 38 -3 3 1 8 10 12 11 4 14 2 9
-7 -6 -9 -4 -9 8 1 13 10 17 10 22 0 3 -7 4 -3 2 9 -2 13 1 26 6 30 6 3 8 1 5
-4 -4 -6 0 -16 8 -23 13 -11 14 -10 9 4 -3 9 -1 16 6 16 6 0 9 4 6 8 -3 5 1 9
9 9 8 0 12 -4 10 -8 -6 -8 11 -6 38 6 9 4 17 12 17 17 0 6 -8 4 -17 -3 -16
-13 -17 -12 -4 4 8 9 16 15 19 12 3 -2 11 3 19 13 7 9 12 13 11 7 -2 -5 2 -11
7 -12 6 -2 10 2 10 7 0 6 3 9 6 8 4 -2 16 5 27 15 17 15 20 16 25 3 4 -10 1
-13 -9 -9 -7 3 -14 3 -14 0 0 -14 30 -14 42 1 11 13 11 14 -1 7 -10 -5 -12 -4
-7 4 6 9 11 9 22 0 12 -10 15 -10 12 2 -2 8 3 13 11 11 8 -2 11 3 8 12 -4 9
-1 18 5 22 6 4 8 3 4 -4 -11 -18 11 -23 28 -6 9 8 16 12 16 8 0 -3 8 0 17 7
10 8 14 9 10 2 -4 -6 -3 -14 2 -18 6 -3 8 5 5 19 -3 21 -1 23 18 18 12 -3 19
-1 15 5 -8 13 26 13 36 -1 5 -7 6 -3 3 8 -5 13 -2 17 9 12 8 -3 14 -2 14 2 -1
4 -1 14 0 22 1 13 2 13 11 0 9 -13 10 -13 10 0 0 13 1 13 10 0 7 -12 10 -12
10 -1 0 7 6 11 14 8 10 -4 13 0 11 14 -3 17 -1 18 10 9 10 -8 15 -8 21 1 5 8
3 10 -7 4 -8 -5 -10 -4 -6 0 12 14 38 15 30 2 -4 -8 -1 -7 9 1 13 10 17 10 22
0 3 -7 4 -3 2 9 -3 16 0 20 12 16 11 -5 13 -3 7 6 -6 10 -3 11 14 2 18 -10 20
-9 14 6 -6 15 -4 16 8 6 13 -10 19 -10 35 2 10 8 14 15 9 15 -6 0 -17 -6 -25
-12 -12 -11 -12 -10 -1 5 7 9 26 17 42 17 16 0 29 5 29 10 0 6 11 10 24 10 13
0 30 7 37 17 13 15 12 15 -11 4 -23 -11 -24 -11 -6 3 14 12 23 13 33 5 9 -8
13 -8 13 0 0 6 3 10 8 10 21 -4 32 2 26 13 -5 8 -2 9 9 5 12 -4 17 -1 17 11 0
15 2 15 10 2 5 -8 10 -10 10 -4 0 14 31 14 50 0 9 -6 7 -1 -3 11 -18 21 -18
21 7 19 14 -2 26 0 26 5 0 5 9 13 20 19 17 9 19 8 14 -7 -4 -13 0 -11 14 6 13
16 25 22 36 18 11 -5 15 -3 10 5 -5 8 -2 9 11 4 14 -5 15 -4 7 7 -9 10 -5 13
17 11 24 -2 28 1 24 20 -4 15 -2 17 5 7 7 -10 11 -10 17 -1 6 9 10 9 16 -1 7
-11 9 -10 9 3 0 11 5 15 15 12 9 -4 15 0 15 9 0 9 5 19 12 23 6 4 8 3 4 -4 -4
-7 1 -10 14 -9 11 1 20 5 20 10 0 4 6 5 13 1 9 -6 9 -4 -1 8 -11 14 -10 16 7
11 12 -3 18 -10 14 -16 -3 -6 -1 -7 6 -3 9 6 9 11 0 22 -6 8 -9 17 -5 21 3 3
6 1 6 -5 0 -7 7 -12 16 -12 9 0 12 5 8 12 -5 10 -4 10 6 1 10 -9 18 -8 36 4
13 8 24 11 24 7 1 -5 12 5 26 21 18 22 23 24 19 10 -6 -19 -6 -19 8 -3 9 12
17 14 24 7 8 -8 13 -7 18 2 5 7 4 10 -2 6 -6 -4 -14 0 -17 9 -3 8 -2 12 3 9 5
-3 12 -1 16 4 3 6 12 8 20 4 8 -3 15 0 15 7 0 6 4 9 9 6 12 -8 42 4 36 14 -3
4 2 11 11 14 12 5 15 2 10 -10 -5 -14 -4 -15 8 -5 8 7 20 9 27 5 9 -5 10 1 5
22 -7 28 -7 28 8 9 15 -20 15 -20 16 5 1 14 4 19 7 12 4 -10 8 -10 19 -1 11 9
14 8 14 -2 0 -12 2 -12 9 0 5 8 16 11 26 7 15 -5 16 -4 5 9 -11 13 -10 14 5 9
13 -5 16 -4 11 4 -5 8 -1 10 10 5 12 -5 15 -3 9 6 -6 10 -3 11 15 1 12 -7 20
-8 16 -2 -3 5 1 13 10 16 10 4 13 2 8 -6 -5 -7 -3 -8 5 -4 7 5 10 14 7 22 -3
7 0 16 6 20 7 4 8 3 4 -4 -4 -7 -3 -12 3 -12 5 0 12 6 14 13 4 9 8 8 16 -3 9
-12 11 -12 17 3 3 9 13 17 20 17 8 0 17 7 21 16 5 13 7 13 14 2 5 -8 9 -9 9
-2 0 7 9 14 21 17 13 4 18 10 13 18 -5 8 -3 10 6 4 7 -4 16 -2 21 6 8 12 11
12 19 -1 9 -14 14 -7 11 13 -1 4 9 2 21 -4 21 -11 22 -11 10 4 -11 13 -10 15
8 10 16 -4 19 -2 14 13 -6 17 -5 17 10 -1 10 -11 14 -14 10 -6 -5 11 -3 13 10
8 11 -5 15 -3 10 5 -5 8 -2 9 9 5 9 -3 19 -2 22 3 3 4 -1 11 -7 13 -7 3 -3 6
10 6 12 1 22 6 22 11 0 6 5 10 11 10 5 0 7 -5 4 -11 -4 -6 2 -5 13 2 12 7 18
18 14 24 -3 5 1 4 10 -3 11 -9 18 -10 23 -2 3 6 11 7 17 4 6 -4 8 -2 5 3 -9
15 13 30 41 27 16 -1 20 2 12 11 -8 9 -4 12 15 10 16 -2 23 1 18 8 -4 6 0 8
10 4 10 -3 17 -2 17 4 0 6 3 8 8 6 10 -7 32 19 24 29 -4 5 1 2 10 -5 10 -7 15
-18 12 -25 -3 -6 5 1 18 17 19 22 26 25 37 15 8 -7 12 -8 9 -3 -3 6 3 18 13
27 17 16 18 16 22 0 4 -14 5 -14 6 2 1 16 3 17 18 5 9 -8 14 -9 10 -3 -4 7 3
14 18 18 14 4 23 11 20 16 -3 5 -1 11 5 15 5 3 10 1 10 -6 0 -7 7 -4 16 7 8
10 13 14 10 8 -3 -6 1 -11 9 -11 8 0 12 4 9 9 -3 4 2 8 11 8 9 0 14 4 11 9 -3
5 1 12 10 15 8 3 13 2 10 -2 -3 -5 2 -9 10 -9 8 0 13 6 10 14 -3 8 0 13 7 12
27 -3 37 2 37 19 0 14 2 15 10 2 8 -12 10 -12 10 -1 0 11 3 11 17 0 13 -11 15
-11 9 -1 -5 9 -3 12 5 11 15 -3 60 18 70 33 3 5 15 10 26 11 12 0 19 6 16 13
-2 7 1 15 8 20 7 4 10 3 6 -3 -4 -6 6 -10 27 -9 24 1 32 5 28 15 -4 10 -1 12
8 6 9 -6 11 -4 5 5 -6 10 -4 12 10 6 15 -5 16 -4 5 9 -7 9 -10 18 -6 22 3 3 6
2 6 -4 0 -6 7 -14 16 -17 8 -3 12 -2 9 3 -3 5 -1 12 3 15 7 4 8 45 2 54 -7 8
-4 28 5 34 6 5 5 8 -4 8 -10 0 -11 3 -2 14 10 11 7 18 -11 31 -14 11 -17 15
-6 12 10 -4 20 -1 24 5 5 7 3 8 -5 3 -15 -9 -11 36 4 47 6 5 5 8 -2 8 -7 0
-13 7 -13 16 0 9 5 12 12 8 7 -4 8 -3 4 5 -4 6 -11 9 -15 7 -10 -7 -7 51 3 61
5 5 6 2 1 -6 -6 -10 -4 -12 4 -7 8 5 9 12 2 20 -6 7 -6 17 -1 26 5 8 6 19 2
25 -11 18 -11 35 1 35 8 0 7 3 -1 9 -21 13 -23 61 -3 61 14 0 14 2 1 9 -8 6
-18 7 -24 4 -5 -3 -6 -1 -2 6 4 6 12 9 17 6 5 -3 6 1 3 9 -3 9 -11 13 -17 9
-6 -3 -7 -1 -3 5 4 7 15 12 24 12 16 1 16 1 0 11 -10 5 -15 16 -11 24 3 9 0
22 -6 29 -9 10 -9 16 -1 21 6 4 9 1 8 -6 -2 -6 4 -14 12 -16 9 -3 11 -1 5 4
-12 10 -20 57 -8 50 5 -3 9 3 9 13 0 10 -4 16 -9 13 -5 -3 -7 3 -6 13 2 11 0
25 -4 31 -5 8 -3 12 5 10 7 -2 10 -2 6 0 -14 8 -9 35 5 28 6 -4 1 3 -12 14
l-23 21 22 0 c19 0 20 1 6 16 -21 20 -20 28 2 20 14 -5 14 -4 -2 9 -18 13 -18
15 -3 15 15 0 16 2 5 14 -7 8 -17 11 -22 8 -5 -3 -6 0 -2 6 4 7 15 12 24 12
14 0 15 2 3 9 -21 14 -23 41 -3 34 13 -4 14 -3 4 5 -15 10 -15 18 -1 43 4 9 5
19 2 23 -12 12 -12 36 0 36 8 0 7 3 -1 9 -21 13 -23 61 -3 61 14 0 14 2 1 9
-8 6 -18 7 -24 4 -5 -3 -6 -1 -2 6 4 6 12 9 17 6 5 -3 6 1 3 9 -3 9 -11 13
-17 9 -6 -3 -7 -1 -3 5 4 7 15 12 24 12 16 1 16 1 0 11 -10 5 -15 16 -11 24 3
9 0 22 -6 29 -9 10 -9 16 -1 21 6 4 9 1 8 -6 -2 -6 4 -14 12 -16 9 -3 11 -1 5
4 -12 10 -20 57 -8 50 5 -3 9 3 9 13 0 10 -4 16 -9 13 -5 -3 -7 3 -6 13 2 11
0 25 -4 31 -5 8 -3 12 5 10 7 -2 10 -2 6 0 -14 8 -9 35 5 28 6 -4 1 3 -12 14
l-23 21 22 0 c19 0 20 1 6 16 -21 20 -20 28 2 20 14 -5 14 -4 -2 9 -18 13 -18
15 -3 15 15 0 16 2 5 14 -7 8 -17 11 -22 8 -5 -3 -6 0 -2 6 4 7 15 12 24 12
14 0 15 2 3 9 -21 14 -23 41 -3 34 13 -4 14 -3 4 5 -17 12 -18 13 -4 38 6 12
8 24 5 28 -12 12 -12 36 0 36 8 0 7 3 -1 9 -21 13 -23 61 -3 61 14 0 14 2 1 9
-8 6 -18 7 -24 4 -5 -3 -6 -1 -2 6 4 6 12 9 17 6 5 -3 6 1 3 9 -3 9 -11 13
-17 9 -6 -3 -7 -1 -3 5 4 7 15 12 24 12 16 1 16 1 0 11 -10 5 -15 16 -11 24 3
9 0 22 -6 29 -9 10 -9 16 -1 21 6 4 9 1 8 -6 -2 -6 4 -14 12 -16 9 -3 11 -1 5
4 -12 10 -20 57 -8 50 5 -3 9 3 9 13 0 10 -4 16 -9 13 -5 -3 -7 3 -6 13 2 11
0 25 -4 31 -5 8 -3 12 5 10 7 -2 10 -2 6 0 -14 8 -9 35 5 28 6 -4 1 3 -12 14
l-23 21 22 0 c19 0 20 1 6 16 -21 20 -20 28 2 20 14 -5 14 -4 -2 9 -18 13 -18
15 -3 15 15 0 16 2 5 14 -7 8 -17 11 -22 8 -5 -3 -6 0 -2 6 4 7 15 12 24 12
14 0 15 2 3 9 -21 14 -23 41 -3 34 13 -4 14 -3 4 5 -15 10 -15 18 -1 43 4 9 5
19 2 23 -12 12 -12 36 0 36 8 0 7 3 -1 9 -21 13 -23 61 -3 61 14 0 14 2 1 9
-8 6 -18 7 -24 4 -5 -3 -6 -1 -2 6 4 6 12 9 17 6 5 -3 6 1 3 9 -3 9 -11 13
-17 9 -6 -3 -7 -1 -3 5 4 7 15 12 24 12 16 1 16 1 0 11 -10 5 -15 16 -11 24 3
9 0 22 -6 29 -9 10 -9 16 -1 21 6 4 9 1 8 -6 -2 -6 4 -14 12 -16 9 -3 11 -1 5
4 -12 10 -20 57 -8 50 5 -3 9 3 9 13 0 10 -4 16 -9 13 -5 -3 -7 3 -6 13 2 11
0 25 -4 31 -5 8 -3 12 5 10 7 -2 10 -2 6 0 -14 8 -9 35 5 28 6 -4 1 3 -12 14
l-23 21 22 0 c19 0 20 1 6 16 -21 20 -20 28 2 20 14 -5 14 -4 -2 9 -18 13 -18
15 -3 15 15 0 16 2 5 14 -7 8 -17 11 -22 8 -5 -3 -6 0 -2 6 4 7 15 12 24 12
14 0 15 2 3 9 -21 14 -23 41 -3 34 13 -4 14 -3 4 5 -17 12 -18 13 -4 38 6 12
8 24 5 28 -12 12 -12 36 0 36 8 0 7 3 -1 9 -21 13 -23 61 -3 61 14 0 14 2 1 9
-8 6 -18 7 -24 4 -5 -3 -6 -1 -2 6 4 6 12 9 17 6 5 -3 6 1 3 9 -3 9 -11 13
-17 9 -6 -3 -7 -1 -3 5 4 7 15 12 24 12 16 1 16 1 0 11 -10 5 -15 16 -11 24 3
9 0 22 -6 29 -9 10 -9 16 -1 21 6 4 9 1 8 -6 -2 -6 4 -14 12 -16 9 -3 11 -1 5
4 -12 10 -20 57 -8 50 5 -3 9 3 9 13 0 10 -4 16 -9 13 -5 -3 -7 3 -6 13 2 11
0 25 -4 31 -5 8 -3 12 5 10 7 -2 10 -2 6 0 -14 8 -9 35 5 28 6 -4 1 3 -12 14
l-23 21 22 0 c19 0 20 1 6 16 -21 20 -20 28 2 20 14 -5 14 -4 -2 9 -18 13 -18
15 -3 15 15 0 16 2 5 14 -7 8 -17 11 -22 8 -5 -3 -6 0 -2 6 4 7 15 12 24 12
14 0 15 2 3 9 -21 14 -23 41 -3 34 13 -4 14 -3 4 5 -15 10 -15 18 -1 43 4 9 5
19 2 23 -12 12 -12 36 0 36 8 0 7 3 -1 9 -21 13 -23 61 -3 61 14 0 14 2 1 9
-8 6 -18 7 -24 4 -5 -3 -6 -1 -2 6 4 6 12 9 17 6 5 -3 6 1 3 9 -3 9 -11 13
-17 9 -6 -3 -7 -1 -3 5 4 7 15 12 24 12 16 1 16 1 0 11 -10 5 -15 16 -11 24 3
9 0 22 -6 29 -9 10 -9 16 -1 21 6 4 9 1 8 -6 -2 -6 4 -14 12 -16 9 -3 11 -1 5
4 -12 10 -20 57 -8 50 5 -3 9 3 9 13 0 10 -4 16 -9 13 -5 -3 -7 3 -6 13 2 11
0 25 -4 31 -5 8 -3 12 5 10 7 -2 10 -2 6 0 -14 8 -9 35 5 28 6 -4 1 3 -12 14
l-23 21 22 0 c19 0 20 1 6 16 -21 20 -20 28 2 20 14 -5 14 -4 -2 9 -18 13 -18
15 -3 15 15 0 16 2 5 14 -7 8 -17 11 -22 8 -5 -3 -6 0 -2 6 4 7 15 12 24 12
14 0 15 2 3 9 -21 14 -23 41 -3 34 13 -4 14 -3 4 5 -17 12 -18 13 -4 38 6 12
8 24 5 28 -12 12 -12 36 0 36 8 0 7 3 -1 9 -21 13 -23 61 -3 61 14 0 14 2 1 9
-8 6 -18 7 -24 4 -5 -3 -6 -1 -2 6 4 6 12 9 17 6 5 -3 6 1 3 9 -3 9 -11 13
-17 9 -6 -3 -7 -1 -3 5 4 7 15 12 24 12 16 1 16 1 0 11 -10 5 -15 16 -11 24 3
9 0 22 -6 29 -9 10 -9 16 -1 21 6 4 9 1 8 -6 -2 -6 4 -14 12 -16 9 -3 11 -1 5
4 -12 10 -20 57 -8 50 5 -3 9 3 9 13 0 10 -4 16 -9 13 -5 -3 -7 3 -6 13 2 11
0 25 -4 31 -5 8 -3 12 5 10 7 -2 10 -2 6 0 -14 8 -9 35 5 28 6 -4 1 3 -12 14
l-23 21 22 0 c19 0 20 1 6 16 -21 20 -20 28 2 20 14 -5 14 -4 -2 9 -18 13 -18
15 -3 15 15 0 16 2 5 14 -7 8 -17 11 -22 8 -5 -3 -6 0 -2 6 4 7 15 12 24 12
14 0 15 2 3 9 -21 14 -23 41 -3 34 13 -4 14 -3 4 5 -17 12 -18 13 -4 38 6 12
8 24 5 28 -12 12 -12 36 0 36 8 0 7 3 -1 9 -21 13 -23 61 -3 61 14 0 14 2 1 9
-8 6 -18 7 -24 4 -5 -3 -6 -1 -2 6 4 6 12 9 17 6 5 -3 6 1 3 9 -3 9 -11 13
-17 9 -6 -3 -7 -1 -3 5 4 7 15 12 24 12 16 1 16 1 0 11 -10 5 -15 16 -11 24 3
9 0 22 -6 29 -9 10 -9 16 -1 21 6 4 9 1 8 -6 -2 -6 4 -14 12 -16 9 -3 11 -1 5
4 -12 10 -20 57 -8 50 5 -3 9 3 9 13 0 10 -4 16 -9 13 -5 -3 -7 3 -6 13 2 11
0 25 -4 31 -5 8 -3 12 5 10 7 -2 10 -2 6 0 -14 8 -9 35 5 28 6 -4 1 3 -12 14
l-23 21 22 0 c19 0 20 1 6 16 -21 20 -20 28 2 20 14 -5 14 -4 -2 9 -18 13 -18
15 -3 15 15 0 16 2 5 14 -7 8 -17 11 -22 8 -5 -3 -6 0 -2 6 4 7 15 12 24 12
14 0 15 2 3 9 -21 14 -23 41 -3 34 13 -4 14 -3 4 5 -17 12 -18 13 -4 38 6 12
8 24 5 28 -12 12 -12 36 0 36 8 0 7 3 -1 9 -21 13 -23 61 -3 61 14 0 14 2 1 9
-8 6 -18 7 -24 4 -5 -3 -6 -1 -2 6 4 6 12 9 17 6 5 -3 6 1 3 9 -3 9 -11 13
-17 9 -6 -4 -7 -1 -3 6 5 7 15 10 24 6 14 -5 14 -4 1 12 -17 20 -14 53 4 53 7
0 6 4 -3 10 -8 5 -12 10 -7 10 4 0 0 17 -8 38 -11 27 -11 32 -1 20 7 -10 16
-15 19 -12 6 6 -16 29 -63 69 -13 11 -20 15 -17 8 4 -6 3 -14 -3 -18 -6 -3
-10 4 -10 17 0 18 -2 20 -10 8 -7 -11 -10 -11 -10 -2 0 7 -4 11 -9 7 -5 -3
-21 6 -35 20 -15 15 -26 20 -26 13 0 -10 -2 -10 -8 -1 -7 11 -17 14 -62 22 -3
1 1 5 8 10 11 7 10 9 -3 14 -11 5 -14 3 -9 -5 5 -8 2 -9 -9 -5 -10 4 -17 1
-17 -5 0 -7 -6 -4 -13 6 -7 9 -17 17 -22 16 -19 -4 -35 0 -32 8 1 4 -2 8 -7 9
-5 1 -13 7 -17 15 -7 11 -9 11 -9 0 0 -11 -2 -11 -13 0 -7 7 -19 22 -26 33
-11 19 -12 18 -6 -5 l6 -25 -15 25 c-9 14 -15 21 -16 15 0 -5 -11 -10 -25 -10
-23 0 -24 1 -8 14 17 12 16 13 -4 6 -24 -7 -30 3 -13 23 7 9 7 9 -2 2 -17 -14
-31 -12 -22 3 5 8 2 8 -9 -2 -15 -12 -17 -11 -17 5 -1 18 -1 18 -16 -1 -14
-19 -15 -18 -9 15 6 33 5 34 -9 15 -12 -16 -17 -18 -28 -7 -11 11 -10 12 7 7
15 -5 17 -4 6 3 -8 6 -22 9 -32 7 -10 -2 -20 3 -23 11 -3 9 -10 13 -15 10 -14
-9 -42 5 -35 16 4 6 0 7 -12 1 -17 -8 -26 -9 -50 -4 -4 0 0 8 7 17 12 15 11
16 -9 10 -18 -6 -21 -4 -15 10 5 13 3 15 -8 9 -21 -13 -52 -14 -39 -1 5 5 10
15 10 20 0 6 -5 4 -11 -4 -8 -12 -12 -12 -16 -2 -4 10 -8 10 -21 0 -13 -12
-14 -10 -3 10 9 18 9 22 -1 20 -7 -2 -16 -7 -20 -13 -5 -6 -8 -5 -8 3 0 6 -7
12 -16 12 -8 0 -12 -4 -9 -10 4 -6 -1 -7 -11 -3 -15 5 -15 7 0 15 9 5 16 14
16 21 0 7 -4 6 -10 -3 -8 -12 -10 -12 -16 4 -5 14 -9 15 -15 4 -7 -10 -9 -11
-9 0 0 7 -4 11 -9 8 -5 -3 -12 1 -15 10 -4 9 -9 14 -13 11 -3 -4 -13 -1 -22 6
-14 11 -15 10 -1 -7 14 -18 14 -19 -10 -6 -14 7 -28 18 -32 24 -5 7 -8 6 -8
-4 0 -8 -6 -4 -13 10 -7 14 -21 25 -32 25 -11 0 -29 7 -39 17 -15 14 -23 15
-40 6 -19 -10 -19 -9 -8 4 10 13 10 18 1 24 -8 4 -9 3 -5 -4 5 -8 0 -11 -16
-9 -13 2 -23 9 -23 15 0 6 -4 14 -9 19 -5 5 -6 2 -1 -6 5 -9 3 -12 -6 -9 -8 3
-14 10 -14 16 0 5 -4 14 -9 19 -5 4 -6 3 -2 -4 4 -8 -1 -11 -14 -10 -11 1 -20
7 -20 13 0 7 -8 10 -20 7 -13 -4 -20 0 -20 10 0 19 -24 29 -39 14 -8 -8 -11
-7 -11 4 0 11 -2 11 -9 1 -6 -10 -11 -9 -22 4 -12 15 -12 17 0 9 10 -6 12 -4
6 4 -4 7 -15 11 -25 8 -11 -3 -21 2 -24 10 -5 12 -9 13 -21 3 -11 -9 -15 -9
-15 -1 0 7 -5 9 -11 5 -7 -4 -6 2 2 17 11 22 11 23 -5 9 -16 -12 -19 -12 -28
4 -8 14 -12 15 -26 4 -12 -10 -14 -10 -8 0 4 7 1 12 -9 12 -10 0 -13 -5 -9
-12 4 -7 3 -8 -4 -4 -6 4 -9 13 -5 21 3 10 -1 15 -12 15 -10 0 -13 4 -9 13 5
7 0 6 -11 -3 -10 -8 -16 -10 -12 -4 4 7 -2 14 -14 17 -17 5 -18 3 -7 -11 10
-12 8 -12 -14 2 -16 10 -28 20 -28 23 0 2 4 2 8 -1 4 -2 14 0 22 6 13 8 12 9
-1 5 -9 -3 -22 0 -28 6 -8 8 -11 7 -11 -3 0 -13 -2 -13 -10 0 -7 11 -10 11
-10 2 0 -7 -5 -10 -10 -7 -6 4 -8 10 -5 15 7 12 -26 29 -44 22 -8 -2 -11 0 -8
5 3 5 -1 10 -9 10 -9 0 -13 -6 -9 -16 4 -11 0 -10 -13 4 -11 11 -17 25 -14 30
3 6 -3 3 -13 -5 -17 -14 -18 -13 -13 7 5 19 3 21 -18 13 -20 -8 -24 -6 -24 8
-1 15 -2 15 -16 -3 -15 -19 -15 -19 -10 7 2 15 0 31 -6 34 -7 4 -8 2 -4 -4 11
-18 -15 -14 -38 6 -20 16 -20 16 -6 -2 14 -18 14 -19 -8 -7 -12 7 -20 16 -17
20 6 11 -23 23 -36 15 -5 -3 -9 0 -9 7 0 8 -4 8 -16 -1 -8 -8 -14 -9 -12 -4 2
5 -6 20 -16 34 -11 14 -16 18 -13 8 7 -21 -8 -24 -16 -4 -6 15 -23 16 -44 3
-8 -5 -11 -1 -8 14 4 17 2 19 -10 9 -14 -12 -20 -4 -16 22 1 8 -20 5 -36 -5
-14 -9 -27 9 -17 24 5 8 1 8 -14 0 -23 -12 -44 -15 -25 -3 9 6 6 11 -8 21 -17
10 -20 10 -13 -1 4 -7 -3 -4 -15 6 -21 19 -21 19 -15 1 5 -13 4 -16 -4 -11 -7
4 -12 14 -12 22 0 8 -5 14 -11 14 -5 0 -7 5 -3 12 4 7 3 8 -5 4 -7 -5 -9 -13
-4 -20 4 -7 1 -4 -9 6 -19 21 -44 24 -50 6 -3 -7 -7 -5 -11 6 -4 10 -3 15 3
11 6 -3 10 -1 10 6 0 6 -8 9 -20 6 -10 -3 -19 -2 -18 2 2 18 -3 22 -16 12 -11
-9 -16 -9 -22 0 -5 8 -3 9 6 4 8 -5 11 -4 7 2 -4 6 -17 8 -31 6 -13 -3 -27 1
-31 8 -6 8 -4 10 6 5 8 -4 5 0 -5 8 -16 13 -22 13 -35 3 -12 -9 -13 -9 -7 1 4
7 1 12 -9 12 -9 0 -14 4 -11 8 2 4 -5 14 -17 22 -19 11 -20 11 -10 -1 10 -12
8 -15 -7 -15 -10 0 -18 3 -18 6 2 21 -5 27 -22 23 -12 -3 -20 0 -20 6 0 7 5 9
12 5 7 -4 8 -3 4 4 -4 6 -14 8 -23 5 -10 -4 -14 -2 -10 4 7 11 -35 12 -44 0
-3 -5 -9 -1 -12 8 -4 9 -3 13 2 10 5 -3 13 -1 16 5 4 6 3 10 -2 9 -21 -4 -44
2 -39 9 3 5 -1 9 -9 9 -8 0 -12 -4 -10 -8 10 -15 -28 -2 -40 14 -9 13 -14 14
-25 4 -7 -7 -10 -7 -8 -2 3 6 0 16 -8 23 -11 10 -14 10 -14 0 -1 -8 -4 -7 -10
3 -5 9 -20 15 -34 14 -19 -3 -23 1 -19 19 3 12 1 17 -4 11 -4 -5 -16 -11 -26
-11 -14 -2 -15 1 -6 12 10 12 9 13 -6 8 -13 -5 -16 -4 -11 4 5 8 1 10 -10 5
-12 -4 -15 -3 -10 5 5 8 2 10 -8 6 -10 -4 -16 -1 -16 7 0 11 -3 11 -10 -1 -9
-13 -10 -13 -10 0 0 10 -3 11 -8 3 -5 -8 -12 -7 -27 4 -16 13 -17 15 -2 10 9
-4 17 -2 17 3 0 6 -9 10 -19 10 -11 0 -22 6 -24 13 -4 10 -6 10 -6 0 -1 -7 -6
-13 -12 -13 -5 0 -7 5 -4 10 3 6 -3 10 -15 10 -12 0 -18 5 -15 10 6 9 -11 13
-57 13 -10 0 -18 7 -18 16 0 14 -2 14 -10 1 -7 -12 -10 -12 -10 -1 0 8 -6 11
-16 7 -14 -5 -15 -4 -5 8 11 13 9 15 -8 11 -12 -2 -21 0 -21 6 0 5 -7 9 -16 9
-9 0 -12 -5 -8 -12 5 -9 2 -9 -9 1 -18 15 -23 26 -7 16 6 -3 10 -1 10 6 0 7
-8 9 -21 6 -14 -4 -19 -1 -16 7 3 6 -3 12 -13 12 -10 0 -16 -4 -14 -8 3 -4 0
-8 -7 -8 -7 0 -9 8 -6 21 4 16 3 18 -8 9 -10 -9 -15 -6 -20 11 -6 16 -9 18
-16 8 -6 -11 -9 -10 -15 4 -5 13 -10 15 -19 7 -9 -8 -15 -8 -20 0 -3 6 -11 7
-17 4 -7 -4 -8 -2 -4 5 6 9 11 9 22 0 18 -15 18 -2 0 17 -11 11 -16 11 -19 1
-4 -9 -8 -9 -15 2 -7 9 -12 10 -16 2 -5 -7 -14 -4 -28 9 -12 11 -28 20 -35 20
-7 0 -13 6 -13 13 0 9 -3 8 -9 -2 -7 -11 -9 -11 -14 0 -4 12 -7 11 -16 -1 -6
-8 -11 -10 -11 -4 0 6 -9 21 -19 33 -14 16 -21 18 -24 9 -4 -11 -6 -10 -6 0
-1 7 -5 10 -11 7 -5 -3 -10 -1 -10 5 0 6 -4 8 -10 5 -5 -3 -10 -1 -10 6 0 9
-3 9 -14 0 -12 -10 -14 -8 -9 11 4 18 3 20 -6 8 -6 -8 -11 -10 -11 -4 0 7 -7
14 -14 17 -11 4 -13 1 -10 -11 3 -9 -1 -6 -9 8 -9 14 -13 29 -10 34 4 5 1 6
-5 2 -21 -13 -51 -15 -58 -4 -5 7 -2 8 6 3 9 -5 11 -4 6 4 -6 9 -11 9 -24 -1
-10 -8 -13 -9 -9 -1 4 7 -5 17 -23 26 -16 9 -30 11 -30 6 0 -5 -5 -9 -11 -9
-5 0 -7 5 -3 12 5 8 2 9 -10 5 -14 -6 -17 -3 -12 8 4 13 2 14 -14 5 -16 -9
-18 -8 -13 6 4 12 3 15 -5 10 -7 -4 -12 -2 -12 5 0 7 -8 5 -21 -7 -15 -14 -20
-15 -17 -4 2 9 -3 14 -11 12 -12 -3 -12 -1 0 14 8 10 9 15 3 11 -7 -4 -15 0
-18 9 -4 9 -9 14 -13 11 -3 -4 -12 -2 -19 4 -8 6 -14 7 -18 0 -8 -12 -36 -3
-36 11 0 7 5 6 13 -1 10 -8 14 -7 14 4 0 8 -3 13 -5 10 -3 -3 -11 0 -19 6 -10
9 -13 8 -13 -2 0 -11 -2 -11 -10 1 -9 13 -10 13 -10 0 0 -13 -2 -13 -9 0 -6 8
-7 18 -4 24 3 5 1 6 -6 2 -6 -4 -9 -12 -6 -17 3 -5 -1 -6 -9 -3 -9 3 -13 10
-10 15 3 5 0 9 -6 9 -6 0 -8 5 -4 12 4 7 3 8 -5 4 -6 -4 -9 -12 -6 -17 3 -5
-1 -6 -9 -3 -8 3 -17 13 -19 22 -4 15 -5 15 -6 0 -1 -17 -2 -17 -19 0 -10 9
-18 22 -17 27 1 6 0 7 -2 3 -7 -13 -25 -9 -46 10 -17 14 -19 14 -15 2 4 -11 0
-16 -12 -16 -10 0 -17 3 -15 6 2 3 -3 14 -11 25 -8 10 -14 15 -14 10 0 -5 -7
0 -15 11 -15 19 -15 19 -8 -1 6 -17 5 -18 -9 -5 -9 8 -14 18 -11 23 2 4 -5 7
-16 7 -10 0 -22 6 -24 13 -4 10 -6 10 -6 0 -1 -7 -6 -13 -12 -13 -5 0 -7 5 -3
12 5 8 2 9 -9 5 -9 -3 -19 -2 -22 4 -4 5 -11 6 -17 3 -7 -4 -8 -2 -4 5 6 9 11
9 21 1 10 -8 15 -8 21 1 4 7 3 9 -4 5 -6 -3 -14 -2 -17 4 -7 12 -88 11 -107
-2z m-62 -53 c-1 -8 -5 -17 -8 -21 -5 -4 -4 16 1 34 3 9 9 -1 7 -13z m429 -95
c3 -6 -1 -7 -9 -4 -18 7 -21 14 -7 14 6 0 13 -4 16 -10z m-665 -10 c0 -5 -5
-10 -11 -10 -5 0 -7 5 -4 10 3 6 8 10 11 10 2 0 4 -4 4 -10z m-105 -68 c-3 -3
-11 0 -18 7 -9 10 -8 11 6 5 10 -3 15 -9 12 -12z m-85 -36 c0 -2 -7 -7 -16
-10 -8 -3 -12 -2 -9 4 6 10 25 14 25 6z m1280 -76 c0 -5 -6 -12 -12 -16 -7 -4
-10 -4 -6 1 4 4 3 14 -4 22 -8 11 -7 12 6 7 9 -3 16 -10 16 -14z m-1530 -20
c0 -5 -5 -10 -11 -10 -5 0 -7 5 -4 10 3 6 8 10 11 10 2 0 4 -4 4 -10z m1888
-155 c-3 -3 -9 2 -12 12 -6 14 -5 15 5 6 7 -7 10 -15 7 -18z m1572 -709 c0 -2
-7 -7 -16 -10 -8 -3 -12 -2 -9 4 6 10 25 14 25 6z m-5567 -121 c-3 -9 -8 -14
-10 -11 -3 3 -2 9 2 15 9 16 15 13 8 -4z m5917 -30 c0 -2 -9 -3 -19 -2 -11 0
-18 5 -15 9 4 6 34 0 34 -7z m619 -288 c8 -10 7 -14 -4 -14 -8 0 -15 6 -15 14
0 7 2 13 4 13 2 0 9 -6 15 -13z m65 -25 c3 -5 -1 -9 -9 -9 -8 0 -12 4 -9 9 3
4 7 8 9 8 2 0 6 -4 9 -8z m103 -64 c-3 -8 -6 -5 -6 6 -1 11 2 17 5 13 3 -3 4
-12 1 -19z m340 -160 c-3 -8 -6 -5 -6 6 -1 11 2 17 5 13 3 -3 4 -12 1 -19z
m650 -373 c0 -8 -4 -12 -9 -9 -5 3 -6 10 -3 15 9 13 12 11 12 -6z m0 -222 c-4
-3 -1 -13 6 -22 11 -14 10 -14 -5 -2 -21 15 -23 31 -6 31 6 0 8 -3 5 -7z m3
-363 c0 -5 -2 -10 -4 -10 -3 0 -8 5 -11 10 -3 6 -1 10 4 10 6 0 11 -4 11 -10z
m-3 -277 c-4 -3 -1 -13 6 -22 11 -14 10 -14 -5 -2 -21 15 -23 31 -6 31 6 0 8
-3 5 -7z m3 -363 c0 -5 -2 -10 -4 -10 -3 0 -8 5 -11 10 -3 6 -1 10 4 10 6 0
11 -4 11 -10z m-3 -277 c-4 -3 -1 -13 6 -22 11 -14 10 -14 -5 -2 -21 15 -23
31 -6 31 6 0 8 -3 5 -7z m3 -363 c0 -5 -2 -10 -4 -10 -3 0 -8 5 -11 10 -3 6
-1 10 4 10 6 0 11 -4 11 -10z m-3 -277 c-4 -3 -1 -13 6 -22 11 -14 10 -14 -5
-2 -21 15 -23 31 -6 31 6 0 8 -3 5 -7z m3 -363 c0 -5 -2 -10 -4 -10 -3 0 -8 5
-11 10 -3 6 -1 10 4 10 6 0 11 -4 11 -10z m-3 -277 c-4 -3 -1 -13 6 -22 11
-14 10 -14 -5 -2 -21 15 -23 31 -6 31 6 0 8 -3 5 -7z m3 -363 c0 -5 -2 -10 -4
-10 -3 0 -8 5 -11 10 -3 6 -1 10 4 10 6 0 11 -4 11 -10z m-3 -277 c-4 -3 -1
-13 6 -22 11 -14 10 -14 -5 -2 -21 15 -23 31 -6 31 6 0 8 -3 5 -7z m3 -363 c0
-5 -2 -10 -4 -10 -3 0 -8 5 -11 10 -3 6 -1 10 4 10 6 0 11 -4 11 -10z m-3
-277 c-4 -3 -1 -13 6 -22 11 -14 10 -14 -5 -2 -21 15 -23 31 -6 31 6 0 8 -3 5
-7z m3 -363 c0 -5 -2 -10 -4 -10 -3 0 -8 5 -11 10 -3 6 -1 10 4 10 6 0 11 -4
11 -10z m-3 -277 c-4 -3 -1 -13 6 -22 11 -14 10 -14 -5 -2 -21 15 -23 31 -6
31 6 0 8 -3 5 -7z m3 -363 c0 -5 -2 -10 -4 -10 -3 0 -8 5 -11 10 -3 6 -1 10 4
10 6 0 11 -4 11 -10z m-3 -277 c-4 -3 -1 -13 6 -22 11 -14 10 -14 -5 -2 -21
15 -23 31 -6 31 6 0 8 -3 5 -7z m-1 -59 c1 -9 0 -13 -4 -10 -3 4 -7 14 -8 22
-1 9 0 13 4 10 3 -4 7 -14 8 -22z m-2 -110 c3 -8 2 -12 -4 -9 -6 3 -10 10 -10
16 0 14 7 11 14 -7z m7 -107 c-6 -8 -9 -17 -6 -21 3 -3 -1 -1 -7 4 -10 9 -10
13 2 20 21 13 24 12 11 -3z m4 -90 c1 -10 -1 -20 -5 -22 -4 -2 -7 1 -8 8 0 7
-3 26 -6 42 -5 27 -5 28 6 10 7 -11 13 -28 13 -38z m-189 -122 c-11 -8 -25
-15 -30 -15 -6 1 0 7 14 15 32 19 40 18 16 0z m-106 -39 c0 -3 -4 -8 -10 -11
-5 -3 -10 -1 -10 4 0 6 5 11 10 11 6 0 10 -2 10 -4z m-8735 -116 c3 -5 1 -10
-4 -10 -6 0 -11 5 -11 10 0 6 2 10 4 10 3 0 8 -4 11 -10z m8216 -133 c-10 -9
-11 -8 -5 6 3 10 9 15 12 12 3 -3 0 -11 -7 -18z m-351 -147 c0 -5 -5 -10 -11
-10 -5 0 -7 5 -4 10 3 6 8 10 11 10 2 0 4 -4 4 -10z m-6880 -175 c0 -2 -9 -3
-19 -2 -11 0 -18 5 -15 9 4 6 34 0 34 -7z m6380 -69 c0 -3 -4 -8 -10 -11 -5
-3 -10 -1 -10 4 0 6 5 11 10 11 6 0 10 -2 10 -4z m-5020 -562 c0 -8 -5 -12
-10 -9 -6 4 -8 11 -5 16 9 14 15 11 15 -7z m34 -20 c5 -14 4 -15 -9 -4 -17 14
-19 20 -6 20 5 0 12 -7 15 -16z m151 -62 c-3 -3 -11 0 -18 7 -9 10 -8 11 6 5
10 -3 15 -9 12 -12z m3325 -57 c-7 -9 -15 -13 -19 -10 -3 3 1 10 9 15 21 14
24 12 10 -5z m-259 -102 c13 -16 12 -17 -3 -4 -10 7 -18 15 -18 17 0 8 8 3 21
-13z m-2431 -129 c0 -8 -19 -13 -24 -6 -3 5 1 9 9 9 8 0 15 -2 15 -3z m1950
-110 c0 -2 -10 -9 -22 -15 -20 -11 -21 -10 -11 3 7 8 10 18 6 22 -4 4 0 4 10
0 9 -3 17 -8 17 -10z m-1614 -44 c0 -12 -4 -16 -9 -11 -5 5 -6 14 -3 20 10 15
12 14 12 -9z m321 -155 c0 -8 -4 -12 -9 -9 -5 3 -6 10 -3 15 9 13 12 11 12 -6z"/>
<path d="M5324 10156 c1 -8 5 -18 8 -22 4 -3 5 1 4 10 -1 8 -5 18 -8 22 -4 3
-5 -1 -4 -10z"/>
<path d="M4055 9760 c-3 -5 -1 -10 4 -10 6 0 11 5 11 10 0 6 -2 10 -4 10 -3 0
-8 -4 -11 -10z"/>
<path d="M7005 9381 c-3 -5 -2 -12 3 -15 5 -3 9 1 9 9 0 17 -3 19 -12 6z"/>
<path d="M2643 9108 c1 -7 -4 -12 -11 -10 -8 1 -11 -2 -7 -8 5 -8 11 -8 21 1
7 6 11 15 8 20 -8 13 -14 11 -11 -3z"/>
<path d="M2546 9054 c-5 -14 -4 -15 9 -4 17 14 19 20 6 20 -5 0 -12 -7 -15
-16z"/>
<path d="M977 8343 c-4 -3 -7 -11 -7 -17 0 -6 5 -5 12 2 6 6 9 14 7 17 -3 3
-9 2 -12 -2z"/>
<path d="M463 2125 c0 -8 4 -12 9 -9 5 3 6 10 3 15 -9 13 -12 11 -12 -6z"/>
<path d="M1153 1805 c0 -8 4 -12 9 -9 5 3 6 10 3 15 -9 13 -12 11 -12 -6z"/>
<path d="M6987 849 c7 -7 15 -10 18 -7 3 3 -2 9 -12 12 -14 6 -15 5 -6 -5z"/>
<path d="M3750 621 c0 -5 5 -13 10 -16 6 -3 10 -2 10 4 0 5 -4 13 -10 16 -5 3
-10 2 -10 -4z"/>
<path d="M6311 536 c-9 -11 -9 -16 1 -22 7 -4 10 -4 6 1 -4 4 -3 14 3 22 6 7
9 13 6 13 -2 0 -10 -6 -16 -14z"/>
<path d="M6145 470 c-3 -5 -1 -10 4 -10 6 0 11 5 11 10 0 6 -2 10 -4 10 -3 0
-8 -4 -11 -10z"/>
<path d="M4256 382 c-3 -5 1 -9 9 -9 8 0 12 4 9 9 -3 4 -7 8 -9 8 -2 0 -6 -4
-9 -8z"/>
<path d="M5716 272 c-3 -5 1 -9 9 -9 8 0 12 4 9 9 -3 4 -7 8 -9 8 -2 0 -6 -4
-9 -8z"/>
</g>
</svg>
